<svg width="196" height="82" viewBox="0 0 196 82" fill="none" xmlns="http://www.w3.org/2000/svg">
<path d="M186.33 1.00047C175.395 -3.05 161.888 5.55508 167.816 20.3662L135.621 46.6509C135.621 46.6509 126.112 38.7759 116.707 47.5548L85.5373 27.0243C85.5373 27.0243 90.909 15.1337 77.9579 8.77112C64.9894 2.40858 53.064 17.9846 59.2875 28.05L24.4674 55.6036C24.4674 55.6036 16.0013 46.9638 5.27541 56.7857C-5.45052 66.5903 3.58917 82.9313 16.123 81.0712C28.6395 79.2111 32.6552 66.7815 28.4309 60.5754L63.251 33.0392C63.251 33.0392 72.9339 40.1319 81.9041 32.3612L113.247 52.8917C113.247 52.8917 107.632 64.765 121.54 71.1623C135.447 77.5596 146.173 61.6359 139.602 51.6227L171.797 25.3555C171.797 25.3555 179.202 32.396 189.059 25.8074C198.916 19.2363 197.264 5.06833 186.33 1.00047ZM15.4972 75.6995C10.5428 75.6995 6.54446 71.6838 6.54446 66.7467C6.54446 61.8097 10.5428 57.8114 15.4972 57.8114C18.3482 57.8114 20.8689 59.1326 22.4856 61.2013C23.7198 62.731 24.4326 64.6433 24.4326 66.7467C24.4326 71.6838 20.4343 75.6995 15.4972 75.6995ZM79.6268 26.7809C78.0448 29.1973 75.2981 30.814 72.1516 30.814C69.3007 30.814 66.78 29.4755 65.1459 27.4068C63.929 25.877 63.2163 23.9647 63.2163 21.8613C63.2163 16.9242 67.2146 12.9085 72.1516 12.9085C77.1061 12.9085 81.1044 16.9242 81.1044 21.8613C81.1218 23.6692 80.5655 25.3555 79.6268 26.7809ZM126.65 66.7467C121.713 66.7467 117.715 62.7484 117.715 57.8114C117.715 56.0034 118.254 54.2998 119.175 52.8917C120.775 50.458 123.521 48.8586 126.65 48.8586C129.484 48.8586 131.987 50.1624 133.604 52.1963C134.856 53.7261 135.603 55.6905 135.603 57.8114C135.603 62.7484 131.605 66.7467 126.65 66.7467ZM180.715 23.1303C177.916 23.1303 175.395 21.8265 173.761 19.7926C172.509 18.2628 171.779 16.2984 171.779 14.1775C171.779 9.24049 175.778 5.24217 180.715 5.24217C185.669 5.24217 189.667 9.24049 189.667 14.1775C189.667 19.1146 185.669 23.1303 180.715 23.1303Z" fill="white"/>
</svg>
